<svg width="33" height="33" viewBox="0 0 33 33" fill="none" xmlns="http://www.w3.org/2000/svg">
<g clip-path="url(#clip0_26_254)">
<path d="M23.6425 11.5703L25.2265 9.98763C26.8398 9.98763 29.0825 9.80496 30.0171 8.8703C31.5518 7.3343 32.6731 0.654297 32.6731 0.654297C32.6731 0.654297 25.9931 1.7743 24.4585 3.3103C23.5251 4.24363 23.3411 6.48763 23.3411 8.10096L21.7571 9.68496C21.9153 9.22655 21.9995 8.74586 22.0065 8.26096C22.0065 6.41963 18.6731 1.98763 18.6731 1.98763C18.6731 1.98763 15.3398 6.41963 15.3398 8.26096C15.3398 9.7103 16.9878 12.5876 17.6918 13.7503L15.0905 16.3516C15.2487 15.8932 15.3328 15.4125 15.3398 14.9276C15.3398 13.0863 12.0065 8.6543 12.0065 8.6543C12.0065 8.6543 8.67314 13.0863 8.67314 14.9276C8.67314 16.377 10.3211 19.2543 11.0251 20.417L8.4238 23.0183C8.582 22.5599 8.66616 22.0792 8.67314 21.5943C8.67314 19.753 5.3398 15.321 5.3398 15.321C5.3398 15.321 2.00647 19.753 2.00647 21.5943C2.00647 23.0436 3.65447 25.921 4.35847 27.0836L0.730469 30.7116L2.6158 32.597L6.2438 28.969C7.40647 29.673 10.2838 31.321 11.7398 31.321C13.5745 31.321 18.0065 27.9876 18.0065 27.9876C18.0065 27.9876 13.5745 24.6543 11.7398 24.6543C11.2549 24.6613 10.7742 24.7454 10.3158 24.9036L12.9171 22.3023C14.0731 23.0063 16.9505 24.6543 18.4065 24.6543C20.2411 24.6543 24.6731 21.321 24.6731 21.321C24.6731 21.321 20.2411 17.9876 18.4065 17.9876C17.9216 17.9946 17.4409 18.0788 16.9825 18.237L19.5838 15.6356C20.7398 16.3396 23.6171 17.9876 25.0731 17.9876C26.9145 17.9876 31.3398 14.6543 31.3398 14.6543C31.3398 14.6543 26.9078 11.321 25.0731 11.321C24.586 11.3272 24.103 11.4114 23.6425 11.5703Z" fill="black"/>
</g>
<defs>
<clipPath id="clip0_26_254">
<rect width="32" height="32" fill="white" transform="translate(0.67334 0.654297)"/>
</clipPath>
</defs>
</svg>
