<svg width="14" height="9" viewBox="0 0 14 9" fill="none" xmlns="http://www.w3.org/2000/svg">
<path d="M6.98097 8.85792C6.95891 8.87972 6.92911 8.89186 6.8981 8.89168C6.86708 8.8915 6.83741 8.87901 6.81561 8.85695L5.0596 7.08402L5.07566 7.06733L0.370896 2.31894C0.349098 2.29687 0.336929 2.26707 0.337055 2.23606C0.337182 2.20504 0.349594 2.17534 0.371571 2.15345L2.06021 0.479144C2.08221 0.457341 2.11195 0.445158 2.14292 0.445262C2.1739 0.445366 2.20357 0.457747 2.22542 0.479697L6.84936 5.14486C6.87125 5.16684 6.90095 5.17924 6.93197 5.17936C6.96299 5.17949 6.99279 5.16733 7.01485 5.14553L11.7363 0.467614C11.7584 0.44574 11.7882 0.433488 11.8192 0.433561C11.8503 0.433635 11.88 0.446017 11.9019 0.467995L13.5762 2.15663C13.5981 2.1786 13.6104 2.20835 13.6103 2.23935C13.6103 2.27036 13.5979 2.30007 13.576 2.32197L6.98097 8.85792Z" fill="#5C606C"/>
</svg>
