<svg width="33" height="28" viewBox="0 0 33 28" fill="none" xmlns="http://www.w3.org/2000/svg">
<g clip-path="url(#clip0_26_259)">
<path d="M16.4999 9.6543C14.9844 9.6543 13.531 10.2563 12.4593 11.328C11.3877 12.3996 10.7856 13.8531 10.7856 15.3686C10.7856 16.8841 11.3877 18.3376 12.4593 19.4092C13.531 20.4808 14.9844 21.0829 16.4999 21.0829C18.0155 21.0829 19.4689 20.4808 20.5405 19.4092C21.6122 18.3376 22.2142 16.8841 22.2142 15.3686C22.2142 13.8531 21.6122 12.3996 20.5405 11.328C19.4689 10.2563 18.0155 9.6543 16.4999 9.6543Z" fill="black"/>
<path fill-rule="evenodd" clip-rule="evenodd" d="M12.4528 0.619601C15.149 0.474781 17.851 0.474781 20.5472 0.619601C22.0208 0.698839 23.3358 1.51103 24.1008 2.7377L25.3518 4.74455C25.7175 5.32817 26.3347 5.72436 27.0432 5.82646C27.6314 5.90874 28.2166 5.99865 28.7987 6.09617C30.9808 6.46036 32.5 8.37122 32.5 10.5289V23.3686C32.5 24.581 32.0184 25.7437 31.1611 26.601C30.3038 27.4583 29.141 27.94 27.9286 27.94H5.07143C3.85901 27.94 2.69625 27.4583 1.83894 26.601C0.981631 25.7437 0.5 24.581 0.5 23.3686V10.5289C0.5 8.37122 2.01924 6.46036 4.20133 6.09617C4.78343 5.99865 5.36857 5.90874 5.95524 5.82493C6.29903 5.77892 6.62859 5.65823 6.92079 5.47133C7.21298 5.28443 7.46074 5.03585 7.64667 4.74303L8.89924 2.73922C9.2779 2.12673 9.79853 1.61447 10.4171 1.24578C11.0356 0.877092 11.7339 0.661307 12.4528 0.619601ZM8.5 15.3686C8.5 13.2468 9.34285 11.212 10.8431 9.7117C12.3434 8.21141 14.3783 7.36855 16.5 7.36855C18.6217 7.36855 20.6566 8.21141 22.1569 9.7117C23.6571 11.212 24.5 13.2468 24.5 15.3686C24.5 17.4903 23.6571 19.5251 22.1569 21.0254C20.6566 22.5257 18.6217 23.3686 16.5 23.3686C14.3783 23.3686 12.3434 22.5257 10.8431 21.0254C9.34285 19.5251 8.5 17.4903 8.5 15.3686ZM26.7857 13.0828C27.0888 13.0828 27.3795 12.9624 27.5938 12.7481C27.8082 12.5338 27.9286 12.2431 27.9286 11.94C27.9286 11.6369 27.8082 11.3462 27.5938 11.1319C27.3795 10.9175 27.0888 10.7971 26.7857 10.7971C26.4826 10.7971 26.1919 10.9175 25.9776 11.1319C25.7633 11.3462 25.6429 11.6369 25.6429 11.94C25.6429 12.2431 25.7633 12.5338 25.9776 12.7481C26.1919 12.9624 26.4826 13.0828 26.7857 13.0828Z" fill="black"/>
</g>
<defs>
<clipPath id="clip0_26_259">
<rect width="32" height="27" fill="white" transform="translate(0.5 0.654297)"/>
</clipPath>
</defs>
</svg>
