<svg width="77" height="77" viewBox="0 0 77 77" fill="none" xmlns="http://www.w3.org/2000/svg">
<g opacity="0.1">
<path d="M66.4872 64.6162C72.3644 57.7093 75.2705 48.7393 74.566 39.6794C73.8616 30.6195 69.6044 22.2118 62.7309 16.306C55.8574 10.4003 46.9308 7.48023 37.9147 8.18809C28.8986 8.89594 20.5316 13.1737 14.6544 20.0805C8.77709 26.9871 5.87095 35.9569 6.57523 45.0167C7.27952 54.0764 11.5365 62.484 18.4098 68.3898C24.5865 73.6967 32.4462 76.6127 40.5729 76.6125C41.085 76.6125 41.5937 76.6015 42.0982 76.5753C40.989 76.6794 39.8655 76.7267 38.7293 76.7267C28.6518 76.7279 18.9865 72.7064 11.8596 65.5469C4.73278 58.3875 0.728126 48.6765 0.726563 38.5501C0.72601 33.536 1.70833 28.5708 3.61743 23.9381C5.52654 19.3054 8.32504 15.0959 11.8532 11.55C15.3813 8.00414 19.5699 5.19126 24.1798 3.27199C28.7898 1.35271 33.7309 0.364642 38.7209 0.364197C43.7109 0.363641 48.6522 1.35072 53.2626 3.26905C57.873 5.18739 62.0622 7.99942 65.5911 11.5446C69.12 15.0898 71.9194 19.2987 73.8295 23.931C75.7396 28.5633 76.723 33.5283 76.7236 38.5425C76.7242 48.2234 73.0653 57.5431 66.4872 64.6162Z" fill="#640C88"/>
<path d="M51.6482 39.6978C51.7264 39.7292 51.7889 39.7905 51.822 39.8683C51.8552 39.9461 51.8563 40.0339 51.825 40.1124L49.3152 46.436L49.2563 46.414L42.5362 63.3544C42.5049 63.433 42.4439 63.4958 42.3665 63.5293C42.2892 63.5628 42.2018 63.5641 42.1235 63.533L36.1252 61.1329C36.0471 61.1016 35.9845 61.0404 35.9512 60.9629C35.9179 60.8853 35.9165 60.7976 35.9475 60.719L42.548 44.0714C42.579 43.9927 42.5777 43.9049 42.5443 43.8272C42.511 43.7495 42.4485 43.6882 42.3703 43.6567L25.6075 36.9422C25.5292 36.9109 25.4664 36.8497 25.4329 36.7719C25.3994 36.6942 25.398 36.6063 25.429 36.5275L27.8175 30.5002C27.8485 30.4215 27.9092 30.3584 27.9865 30.3248C28.0637 30.2911 28.1511 30.2897 28.2294 30.3207L51.6482 39.6978Z" fill="#E5D80E"/>
</g>
</svg>
