<svg width="27" height="33" viewBox="0 0 27 33" fill="none" xmlns="http://www.w3.org/2000/svg">
<path fill-rule="evenodd" clip-rule="evenodd" d="M6.60405 7.51143C6.60405 5.69281 7.3265 3.94867 8.61246 2.66271C9.89842 1.37674 11.6426 0.654297 13.4612 0.654297C15.2798 0.654297 17.024 1.37674 18.3099 2.66271C19.5959 3.94867 20.3183 5.69281 20.3183 7.51143C20.3183 9.33006 19.5959 11.0742 18.3099 12.3602C17.024 13.6461 15.2798 14.3686 13.4612 14.3686C11.6426 14.3686 9.89842 13.6461 8.61246 12.3602C7.3265 11.0742 6.60405 9.33006 6.60405 7.51143ZM0.891295 29.0047C0.942678 25.7049 2.2896 22.5576 4.64133 20.2422C6.99305 17.9268 10.1609 16.6291 13.4612 16.6291C16.7614 16.6291 19.9293 17.9268 22.2811 20.2422C24.6328 22.5576 25.9797 25.7049 26.0311 29.0047C26.035 29.2269 25.9742 29.4454 25.8559 29.6335C25.7376 29.8216 25.5671 29.9711 25.3652 30.0638C21.6306 31.7761 17.5696 32.6598 13.4612 32.6543C9.21586 32.6543 5.18234 31.7278 1.5572 30.0638C1.35527 29.9711 1.18474 29.8216 1.06648 29.6335C0.948208 29.4454 0.887331 29.2269 0.891295 29.0047Z" fill="black"/>
</svg>
