<svg width="27" height="27" viewBox="0 0 27 27" fill="none" xmlns="http://www.w3.org/2000/svg">
<rect x="1" y="1.29541" width="25" height="25" rx="5.5" stroke="#383838"/>
<path d="M6.72041 7.89346C6.59435 7.82625 6.4528 7.79253 6.30961 7.7956C6.16642 7.79868 6.02649 7.83844 5.9035 7.911C5.78051 7.98356 5.67867 8.08644 5.60794 8.20957C5.53722 8.3327 5.50002 8.47187 5.5 8.61347V18.9772C5.5 19.1942 5.58719 19.4023 5.74239 19.5558C5.8976 19.7092 6.1081 19.7954 6.32759 19.7954C6.54708 19.7954 6.75758 19.7092 6.91278 19.5558C7.06798 19.4023 7.15517 19.1942 7.15517 18.9772V9.98366L13.1072 13.1517C13.3521 13.2826 13.6479 13.2826 13.8928 13.1517L19.8448 9.98366V18.9772C19.8448 19.1942 19.932 19.4023 20.0872 19.5558C20.2424 19.7092 20.4529 19.7954 20.6724 19.7954C20.8919 19.7954 21.1024 19.7092 21.2576 19.5558C21.4128 19.4023 21.5 19.1942 21.5 18.9772V8.61347C21.5 8.47187 21.4628 8.3327 21.3921 8.20957C21.3213 8.08644 21.2195 7.98356 21.0965 7.911C20.9735 7.83844 20.8336 7.79868 20.6904 7.7956C20.5472 7.79253 20.4056 7.82625 20.2796 7.89346L13.5 11.5022L6.72041 7.89346Z" fill="#383838"/>
</svg>
