<svg width="33" height="33" viewBox="0 0 33 33" fill="none" xmlns="http://www.w3.org/2000/svg">
<g clip-path="url(#clip0_26_248)">
<path fill-rule="evenodd" clip-rule="evenodd" d="M8.44513 5.8542C8.44513 4.58116 8.97746 3.36026 9.92501 2.46009C10.8726 1.55991 12.1577 1.0542 13.4978 1.0542H18.5504C19.8904 1.0542 21.1756 1.55991 22.1231 2.46009C23.0707 3.36026 23.603 4.58116 23.603 5.8542V6.1822C25.1744 6.3182 26.7306 6.4974 28.275 6.7166C30.7239 7.0654 32.4451 9.0894 32.4451 11.3838V16.2366C32.4451 18.1742 31.2089 19.9998 29.1845 20.6398C24.94 21.9782 20.4963 22.6584 16.0241 22.6542C11.4262 22.6542 7.00176 21.947 2.86366 20.6398C0.839238 19.9998 -0.396973 18.1742 -0.396973 16.2366V11.3838C-0.396973 9.0894 1.32429 7.0638 3.77313 6.7166C5.32478 6.49615 6.88275 6.31795 8.44513 6.1822V5.8542ZM21.0767 5.8542V5.9982C17.7114 5.80403 14.3368 5.80403 10.9714 5.9982V5.8542C10.9714 5.21768 11.2376 4.60723 11.7114 4.15714C12.1852 3.70706 12.8277 3.4542 13.4978 3.4542H18.5504C19.2204 3.4542 19.863 3.70706 20.3368 4.15714C20.8105 4.60723 21.0767 5.21768 21.0767 5.8542ZM16.0241 19.0542C16.3591 19.0542 16.6804 18.9278 16.9173 18.7027C17.1542 18.4777 17.2872 18.1725 17.2872 17.8542C17.2872 17.5359 17.1542 17.2307 16.9173 17.0057C16.6804 16.7806 16.3591 16.6542 16.0241 16.6542C15.6891 16.6542 15.3678 16.7806 15.1309 17.0057C14.894 17.2307 14.7609 17.5359 14.7609 17.8542C14.7609 18.1725 14.894 18.4777 15.1309 18.7027C15.3678 18.9278 15.6891 19.0542 16.0241 19.0542Z" fill="black"/>
<path d="M0.866211 26.8943V22.4207C1.2499 22.6201 1.65183 22.7861 2.06705 22.9167C6.56842 24.3365 11.2811 25.0582 16.0241 25.0543C20.8948 25.0543 25.5904 24.3055 29.9812 22.9183C30.4056 22.7839 30.8064 22.6159 31.182 22.4207V26.8943C31.182 29.2175 29.4186 31.2591 26.9327 31.5711C23.3622 32.0223 19.7209 32.2543 16.0241 32.2543C12.376 32.2549 8.73188 32.0267 5.11547 31.5711C2.62958 31.2591 0.866211 29.2175 0.866211 26.8943Z" fill="black"/>
</g>
<defs>
<clipPath id="clip0_26_248">
<rect width="32" height="32" fill="white" transform="translate(0.282227 0.654297)"/>
</clipPath>
</defs>
</svg>
