<svg width="27" height="27" viewBox="0 0 27 27" fill="none" xmlns="http://www.w3.org/2000/svg">
<rect x="1" y="1.29541" width="25" height="25" rx="5.5" stroke="#383838"/>
<path d="M19 5.79541C19 5.51927 18.7761 5.29541 18.5 5.29541H16.0455C14.8314 5.29541 13.665 5.76685 12.8032 6.60948C11.941 7.45248 11.4545 8.59826 11.4545 9.79541V11.6954H9.5C9.22386 11.6954 9 11.9193 9 12.1954V15.3954C9 15.6716 9.22386 15.8954 9.5 15.8954H11.4545V21.7954C11.4545 22.0716 11.6784 22.2954 11.9545 22.2954H15.2273C15.5034 22.2954 15.7273 22.0716 15.7273 21.7954V15.8954H17.6818C17.9103 15.8954 18.1096 15.7406 18.1662 15.5193L18.9844 12.3193C19.0227 12.1696 18.9896 12.0107 18.8949 11.8888C18.8002 11.7668 18.6544 11.6954 18.5 11.6954H15.7273V9.79541C15.7273 9.71952 15.758 9.6444 15.8165 9.58723C15.8753 9.52968 15.9575 9.49541 16.0455 9.49541H18.5C18.7761 9.49541 19 9.27155 19 8.99541V5.79541Z" stroke="#383838" stroke-linecap="round" stroke-linejoin="round"/>
</svg>
