<svg width="27" height="26" viewBox="0 0 27 26" fill="none" xmlns="http://www.w3.org/2000/svg">
<rect x="0.807617" y="0.5" width="25" height="25" rx="5.5" stroke="white"/>
<path fill-rule="evenodd" clip-rule="evenodd" d="M18.9765 7.32503C18.2369 6.58506 17.3582 5.99868 16.3911 5.59966C15.4239 5.20064 14.3874 4.99685 13.3412 5.00004C8.95047 5.00004 5.37619 8.55646 5.3744 12.9286C5.37244 14.3208 5.73942 15.6886 6.43797 16.8929L5.30762 21L9.53083 19.8975C10.6998 20.5308 12.0084 20.8623 13.338 20.8618H13.3412C17.7315 20.8618 21.3055 17.305 21.3076 12.9332C21.3103 11.8906 21.1055 10.8578 20.7053 9.895C20.3051 8.9322 19.7175 8.0586 18.9765 7.32503ZM13.3412 19.5236H13.3383C12.1531 19.5239 10.9894 19.2067 9.96832 18.605L9.72654 18.4621L7.22047 19.1164L7.8894 16.6847L7.7319 16.4347C7.06918 15.3854 6.71806 14.1696 6.7194 12.9286C6.7194 9.29538 9.69118 6.33932 13.3437 6.33932C15.0958 6.33619 16.7774 7.02915 18.0187 8.26579C19.26 9.50242 19.9592 11.1815 19.9626 12.9336C19.9612 16.5672 16.9908 19.5236 13.3412 19.5236ZM16.973 14.5882C16.774 14.4889 15.7944 14.0097 15.613 13.9436C15.4315 13.8775 15.2976 13.8443 15.1651 14.0429C15.0326 14.2414 14.6508 14.6857 14.5347 14.8197C14.4187 14.9536 14.3026 14.9682 14.1037 14.8689C13.9047 14.7697 13.263 14.5607 12.5026 13.8857C11.9108 13.3604 11.5115 12.7118 11.3955 12.5136C11.2794 12.3154 11.383 12.2079 11.4826 12.1093C11.5723 12.0204 11.6815 11.8779 11.7812 11.7622C11.8808 11.6464 11.914 11.5636 11.9801 11.4314C12.0462 11.2993 12.0133 11.1836 11.9637 11.0847C11.914 10.9857 11.5158 10.0104 11.3501 9.6136C11.1883 9.22717 11.0244 9.27967 10.9023 9.2736C10.7862 9.26788 10.6523 9.26646 10.5205 9.26646C10.4197 9.26908 10.3206 9.29244 10.2293 9.33509C10.138 9.37773 10.0564 9.43874 9.98975 9.51431C9.80725 9.71288 9.29297 10.1929 9.29297 11.1672C9.29297 12.1414 10.0073 13.0843 10.1058 13.2164C10.2044 13.3486 11.5094 15.3497 13.5062 16.2079C13.877 16.3667 14.2558 16.5059 14.6412 16.625C15.118 16.7757 15.5519 16.7547 15.8947 16.7036C16.2772 16.6468 17.0733 16.2243 17.2387 15.7614C17.404 15.2986 17.4044 14.9022 17.3547 14.8197C17.3051 14.7372 17.1722 14.6872 16.973 14.5882Z" fill="white"/>
</svg>
