<svg width="27" height="26" viewBox="0 0 27 26" fill="none" xmlns="http://www.w3.org/2000/svg">
<rect x="0.807617" y="0.5" width="25" height="25" rx="5.5" stroke="white"/>
<path d="M18.8076 5C18.8076 4.72386 18.5838 4.5 18.3076 4.5H15.8531C14.6391 4.5 13.4726 4.97144 12.6108 5.81407C11.7486 6.65707 11.2622 7.80285 11.2622 9V10.9H9.30762C9.03147 10.9 8.80762 11.1239 8.80762 11.4V14.6C8.80762 14.8761 9.03147 15.1 9.30762 15.1H11.2622V21C11.2622 21.2761 11.486 21.5 11.7622 21.5H15.0349C15.311 21.5 15.5349 21.2761 15.5349 21V15.1H17.4894C17.7179 15.1 17.9173 14.9452 17.9739 14.7239L18.792 11.5239C18.8303 11.3742 18.7973 11.2153 18.7025 11.0933C18.6078 10.9714 18.4621 10.9 18.3076 10.9H15.5349V9C15.5349 8.92411 15.5656 8.84899 15.6241 8.79182C15.6829 8.73427 15.7651 8.7 15.8531 8.7H18.3076C18.5838 8.7 18.8076 8.47614 18.8076 8.2V5Z" stroke="white" stroke-linecap="round" stroke-linejoin="round"/>
</svg>
