<svg width="27" height="26" viewBox="0 0 27 26" fill="none" xmlns="http://www.w3.org/2000/svg">
<rect x="0.807617" y="0.5" width="25" height="25" rx="5.5" stroke="white"/>
<path d="M6.52803 7.09805C6.40197 7.03084 6.26042 6.99712 6.11723 7.00019C5.97404 7.00327 5.83411 7.04303 5.71112 7.11559C5.58813 7.18815 5.48629 7.29103 5.41556 7.41416C5.34483 7.53729 5.30764 7.67646 5.30762 7.81806V18.1818C5.30762 18.3988 5.39481 18.6069 5.55001 18.7604C5.70521 18.9138 5.91571 19 6.1352 19C6.35469 19 6.56519 18.9138 6.7204 18.7604C6.8756 18.6069 6.96279 18.3988 6.96279 18.1818V9.18825L12.9148 12.3563C13.1598 12.4872 13.4555 12.4872 13.7004 12.3563L19.6524 9.18825V18.1818C19.6524 18.3988 19.7396 18.6069 19.8948 18.7604C20.05 18.9138 20.2605 19 20.48 19C20.6995 19 20.91 18.9138 21.0652 18.7604C21.2204 18.6069 21.3076 18.3988 21.3076 18.1818V7.81806C21.3076 7.67646 21.2704 7.53729 21.1997 7.41416C21.1289 7.29103 21.0271 7.18815 20.9041 7.11559C20.7811 7.04303 20.6412 7.00327 20.498 7.00019C20.3548 6.99712 20.2133 7.03084 20.0872 7.09805L13.3076 10.7068L6.52803 7.09805Z" fill="white"/>
</svg>
