<svg width="27" height="26" viewBox="0 0 27 26" fill="none" xmlns="http://www.w3.org/2000/svg">
<rect x="0.807617" y="0.5" width="25" height="25" rx="5.5" stroke="white"/>
<path d="M13.079 10.5314C13.9174 9.67474 15.0091 9.11429 16.279 9.11429C17.6127 9.11429 18.8917 9.64408 19.8348 10.5871C20.7778 11.5302 21.3076 12.8092 21.3076 14.1429V21H19.479V14.1429C19.479 13.2942 19.1419 12.4802 18.5418 11.8801C17.9417 11.28 17.1277 10.9429 16.279 10.9429C15.4304 10.9429 14.6164 11.28 14.0163 11.8801C13.4162 12.4802 13.079 13.2942 13.079 14.1429V21H11.2505V9.57143H13.079V10.5314ZM6.67905 7.74286C6.31532 7.74286 5.96649 7.59837 5.7093 7.34118C5.45211 7.08398 5.30762 6.73515 5.30762 6.37143C5.30762 6.0077 5.45211 5.65887 5.7093 5.40168C5.96649 5.14449 6.31532 5 6.67905 5C7.04277 5 7.3916 5.14449 7.64879 5.40168C7.90599 5.65887 8.05047 6.0077 8.05047 6.37143C8.05047 6.73515 7.90599 7.08398 7.64879 7.34118C7.3916 7.59837 7.04277 7.74286 6.67905 7.74286ZM5.76476 9.57143H7.59333V21H5.76476V9.57143Z" fill="white"/>
</svg>
