<svg width="27" height="26" viewBox="0 0 27 26" fill="none" xmlns="http://www.w3.org/2000/svg">
<rect x="0.807617" y="0.5" width="25" height="25" rx="5.5" stroke="white"/>
<path fill-rule="evenodd" clip-rule="evenodd" d="M9.498 5.88086C7.6702 5.88086 6.18848 7.36258 6.18848 9.19038V16.8094C6.18848 18.6372 7.6702 20.119 9.498 20.119H17.117C18.9448 20.119 20.4266 18.6372 20.4266 16.8094V9.19038C20.4266 7.36258 18.9448 5.88086 17.117 5.88086H9.498ZM5.18848 9.19038C5.18848 6.8103 7.11792 4.88086 9.498 4.88086H17.117C19.4971 4.88086 21.4266 6.8103 21.4266 9.19038V16.8094C21.4266 19.1895 19.4971 21.119 17.117 21.119H9.498C7.11792 21.119 5.18848 19.1895 5.18848 16.8094V9.19038ZM13.7142 10.4467C13.1841 10.3681 12.6428 10.4587 12.1671 10.7055C11.6915 10.9523 11.3058 11.3428 11.0649 11.8214C10.8239 12.3001 10.7401 12.8425 10.8252 13.3715C10.9104 13.9006 11.1601 14.3893 11.539 14.7682C11.918 15.1471 12.4067 15.3969 12.9357 15.4821C13.4648 15.5672 14.0072 15.4833 14.4859 15.2424C14.9645 15.0015 15.355 14.6158 15.6018 14.1402C15.8486 13.6645 15.9392 13.1232 15.8605 12.5931C15.7804 12.0524 15.5284 11.5519 15.1419 11.1654C14.7554 10.7789 14.2549 10.5269 13.7142 10.4467ZM11.7066 9.81785C12.3689 9.47418 13.1227 9.3481 13.8609 9.45755C14.6138 9.5692 15.3108 9.92004 15.849 10.4583C16.3872 10.9965 16.7381 11.6935 16.8497 12.4464C16.9592 13.1845 16.8331 13.9384 16.4894 14.6007C16.1458 15.2631 15.602 15.8002 14.9355 16.1357C14.2689 16.4711 13.5136 16.5879 12.7769 16.4694C12.0402 16.3508 11.3596 16.003 10.8319 15.4753C10.3043 14.9477 9.95647 14.2671 9.83792 13.5304C9.71938 12.7937 9.83615 12.0384 10.1716 11.3718C10.5071 10.7053 11.0442 10.1615 11.7066 9.81785ZM17.498 8.30943C17.2219 8.30943 16.998 8.53329 16.998 8.80943C16.998 9.08557 17.2219 9.30943 17.498 9.30943H17.5053C17.7814 9.30943 18.0053 9.08557 18.0053 8.80943C18.0053 8.53329 17.7814 8.30943 17.5053 8.30943H17.498Z" fill="white"/>
</svg>
