<svg width="33" height="33" viewBox="0 0 33 33" fill="none" xmlns="http://www.w3.org/2000/svg">
<g clip-path="url(#clip0_26_232)">
<path d="M28.6733 7.32096H26.0067V4.6543C26.0067 2.44896 24.212 0.654297 22.0067 0.654297H11.34C9.13467 0.654297 7.34001 2.44896 7.34001 4.6543V12.6543H4.67334C2.46801 12.6543 0.67334 14.449 0.67334 16.6543V32.6543H32.6733V11.321C32.6733 9.11563 30.8787 7.32096 28.6733 7.32096ZM8.67334 25.9876H6.00667V23.321H8.67334V25.9876ZM8.67334 20.6543H6.00667V17.9876H8.67334V20.6543ZM15.34 25.9876H12.6733V23.321H15.34V25.9876ZM15.34 20.6543H12.6733V17.9876H15.34V20.6543ZM15.34 15.321H12.6733V12.6543H15.34V15.321ZM15.34 9.98763H12.6733V7.32096H15.34V9.98763ZM20.6733 25.9876H18.0067V23.321H20.6733V25.9876ZM20.6733 20.6543H18.0067V17.9876H20.6733V20.6543ZM20.6733 15.321H18.0067V12.6543H20.6733V15.321ZM20.6733 9.98763H18.0067V7.32096H20.6733V9.98763ZM27.34 25.9876H24.6733V23.321H27.34V25.9876ZM27.34 20.6543H24.6733V17.9876H27.34V20.6543ZM27.34 15.321H24.6733V12.6543H27.34V15.321Z" fill="black"/>
</g>
<defs>
<clipPath id="clip0_26_232">
<rect width="32" height="32" fill="white" transform="translate(0.67334 0.654297)"/>
</clipPath>
</defs>
</svg>
