<svg width="27" height="27" viewBox="0 0 27 27" fill="none" xmlns="http://www.w3.org/2000/svg">
<rect x="1" y="1.29541" width="25" height="25" rx="5.5" stroke="#383838"/>
<path fill-rule="evenodd" clip-rule="evenodd" d="M9.69051 6.67627C7.86271 6.67627 6.38098 8.15799 6.38098 9.98579V17.6048C6.38098 19.4326 7.86271 20.9144 9.69051 20.9144H17.3096C19.1374 20.9144 20.6191 19.4326 20.6191 17.6048V9.98579C20.6191 8.15799 19.1374 6.67627 17.3096 6.67627H9.69051ZM5.38098 9.98579C5.38098 7.60571 7.31042 5.67627 9.69051 5.67627H17.3096C19.6896 5.67627 21.6191 7.60571 21.6191 9.98579V17.6048C21.6191 19.9849 19.6896 21.9144 17.3096 21.9144H9.69051C7.31042 21.9144 5.38098 19.9849 5.38098 17.6048V9.98579ZM13.9067 11.2421C13.3766 11.1635 12.8353 11.2541 12.3596 11.5009C11.884 11.7477 11.4983 12.1382 11.2574 12.6168C11.0165 13.0955 10.9326 13.6379 11.0177 14.167C11.1029 14.696 11.3526 15.1847 11.7316 15.5636C12.1105 15.9426 12.5992 16.1923 13.1283 16.2775C13.6573 16.3626 14.1997 16.2787 14.6784 16.0378C15.157 15.7969 15.5475 15.4112 15.7943 14.9356C16.0411 14.4599 16.1317 13.9186 16.0531 13.3885C15.9729 12.8478 15.7209 12.3473 15.3344 11.9608C14.9479 11.5743 14.4474 11.3223 13.9067 11.2421ZM11.8991 10.6133C12.5614 10.2696 13.3152 10.1435 14.0534 10.253C14.8063 10.3646 15.5033 10.7155 16.0415 11.2537C16.5797 11.7919 16.9306 12.4889 17.0422 13.2418C17.1517 13.98 17.0256 14.7338 16.6819 15.3961C16.3383 16.0585 15.7945 16.5956 15.128 16.9311C14.4614 17.2665 13.7061 17.3833 12.9694 17.2648C12.2327 17.1462 11.5521 16.7984 11.0244 16.2708C10.4968 15.7431 10.149 15.0625 10.0304 14.3258C9.91188 13.5891 10.0287 12.8338 10.3641 12.1672C10.6996 11.5007 11.2367 10.9569 11.8991 10.6133ZM17.6905 9.10484C17.4144 9.10484 17.1905 9.3287 17.1905 9.60484C17.1905 9.88098 17.4144 10.1048 17.6905 10.1048H17.6978C17.9739 10.1048 18.1978 9.88098 18.1978 9.60484C18.1978 9.3287 17.9739 9.10484 17.6978 9.10484H17.6905Z" fill="#383838"/>
</svg>
