<svg width="27" height="27" viewBox="0 0 27 27" fill="none" xmlns="http://www.w3.org/2000/svg">
<rect x="1" y="1.29541" width="25" height="25" rx="5.5" stroke="#383838"/>
<path d="M13.2714 11.3268C14.1098 10.4702 15.2015 9.9097 16.4714 9.9097C17.8051 9.9097 19.0841 10.4395 20.0272 11.3825C20.9702 12.3256 21.5 13.6046 21.5 14.9383V21.7954H19.6714V14.9383C19.6714 14.0896 19.3343 13.2756 18.7342 12.6755C18.1341 12.0754 17.3201 11.7383 16.4714 11.7383C15.6227 11.7383 14.8088 12.0754 14.2087 12.6755C13.6086 13.2756 13.2714 14.0896 13.2714 14.9383V21.7954H11.4429V10.3668H13.2714V11.3268ZM6.87143 8.53827C6.5077 8.53827 6.15887 8.39378 5.90168 8.13659C5.64449 7.87939 5.5 7.53056 5.5 7.16684C5.5 6.80311 5.64449 6.45429 5.90168 6.19709C6.15887 5.9399 6.5077 5.79541 6.87143 5.79541C7.23515 5.79541 7.58398 5.9399 7.84118 6.19709C8.09837 6.45429 8.24286 6.80311 8.24286 7.16684C8.24286 7.53056 8.09837 7.87939 7.84118 8.13659C7.58398 8.39378 7.23515 8.53827 6.87143 8.53827ZM5.95714 10.3668H7.78571V21.7954H5.95714V10.3668Z" fill="#383838"/>
</svg>
