<svg width="186" height="50" viewBox="0 0 186 50" fill="none" xmlns="http://www.w3.org/2000/svg">
<path d="M43.2647 42.0707C47.1314 37.5485 49.0433 31.6755 48.5799 25.7436C48.1164 19.8117 45.3156 14.3069 40.7934 10.4401C36.2713 6.57338 30.3983 4.66148 24.4665 5.12494C18.5347 5.58841 13.03 8.38926 9.16328 12.9114C5.29654 17.4334 3.38455 23.3064 3.84791 29.2382C4.31127 35.1699 7.11201 40.6747 11.634 44.5415C15.6977 48.0162 20.8687 49.9254 26.2154 49.9252C26.5523 49.9252 26.887 49.918 27.2189 49.9009C26.4891 49.969 25.75 50 25.0025 50C18.3723 50.0008 12.0134 47.3677 7.32458 42.6801C2.63574 37.9926 0.00102879 31.6344 1.53548e-07 25.0042C-0.000363697 21.7212 0.645917 18.4703 1.90194 15.4371C3.15796 12.4039 4.99913 9.64781 7.32032 7.32616C9.64151 5.00451 12.3972 3.1628 15.4302 1.90617C18.4632 0.649542 21.7139 0.00261054 24.9969 0.00231949C28.2799 0.00195564 31.5308 0.648234 34.5641 1.90425C37.5973 3.16027 40.3535 5.00142 42.6752 7.3226C44.9969 9.64377 46.8386 12.3995 48.0953 15.4325C49.352 18.4654 49.999 21.7162 49.9994 24.9992C49.9998 31.3377 47.5926 37.4397 43.2647 42.0707Z" fill="white"/>
<path d="M33.5019 25.7555C33.5533 25.7761 33.5944 25.8163 33.6163 25.8672C33.6381 25.9181 33.6388 25.9756 33.6182 26.0271L31.967 30.1674L31.9282 30.1529L27.507 41.2445C27.4864 41.296 27.4462 41.3371 27.3954 41.3591C27.3445 41.381 27.287 41.3818 27.2355 41.3614L23.2891 39.79C23.2377 39.7695 23.1965 39.7295 23.1746 39.6787C23.1527 39.6279 23.1518 39.5705 23.1722 39.519L27.5147 28.6192C27.5351 28.5677 27.5343 28.5102 27.5123 28.4593C27.4904 28.4084 27.4493 28.3683 27.3978 28.3477L16.3694 23.9514C16.3179 23.9309 16.2765 23.8908 16.2545 23.8399C16.2325 23.789 16.2316 23.7314 16.2519 23.6799L17.8234 19.7335C17.8437 19.682 17.8837 19.6407 17.9345 19.6187C17.9853 19.5967 18.0428 19.5957 18.0943 19.616L33.5019 25.7555Z" fill="#E5D80E"/>
<path d="M83.4043 37.6838H77.8804L71.87 28.0169L69.8142 29.4925V37.6838H64.9497V14.7438H69.8142V25.2419L71.7287 22.5428L77.943 14.7438H83.3411L75.3381 24.8934L83.4043 37.6838Z" fill="white"/>
<path d="M100.336 37.6838L98.6737 32.2225H90.3089L88.6466 37.6838H83.4053L91.5024 14.6473H97.4497L105.578 37.6838H100.336ZM97.5101 28.1426C95.9719 23.1926 95.1062 20.3942 94.913 19.7474C94.7198 19.1005 94.5811 18.5878 94.4968 18.2091C94.1518 19.5482 93.1633 22.8594 91.5313 28.1426H97.5101Z" fill="white"/>
<path d="M113.251 37.6838H108.463V14.7438H121.614V18.7295H113.247V24.6457H121.03V28.6159H113.247L113.251 37.6838Z" fill="white"/>
<path d="M140.149 37.6838L138.486 32.2225H130.119L128.457 37.6838H123.216L131.313 14.6473H137.261L145.39 37.6838H140.149ZM137.323 28.1426C135.785 23.1926 134.919 20.3942 134.726 19.7474C134.533 19.1005 134.394 18.5878 134.31 18.2091C133.965 19.5482 132.976 22.8594 131.344 28.1426H137.323Z" fill="white"/>
<path d="M167.31 25.9927C167.31 29.7695 166.235 32.6621 164.085 34.6706C161.936 36.6791 158.831 37.6835 154.772 37.6838H148.275V14.7438H155.478C159.224 14.7438 162.132 15.7323 164.203 17.7094C166.275 19.6864 167.31 22.4475 167.31 25.9927ZM162.257 26.1185C162.257 21.1906 160.081 18.7269 155.729 18.7273H153.139V33.6666H155.227C159.915 33.6666 162.259 31.1505 162.259 26.1185H162.257Z" fill="white"/>
<path d="M185.61 31.3127C185.65 32.2473 185.468 33.178 185.08 34.0289C184.691 34.8799 184.107 35.6268 183.374 36.2088C181.883 37.4012 179.809 37.9975 177.152 37.9975C174.909 38.0419 172.686 37.5694 170.655 36.6166V32.0968C171.925 32.6852 173.24 33.1732 174.586 33.5563C175.545 33.8225 176.534 33.9647 177.528 33.9796C178.391 34.0347 179.248 33.8218 179.985 33.3701C180.269 33.1628 180.496 32.8874 180.645 32.5693C180.794 32.2512 180.861 31.9006 180.84 31.5499C180.846 31.1196 180.714 30.6987 180.463 30.3491C180.157 29.948 179.782 29.6051 179.355 29.3368C178.395 28.7617 177.402 28.2436 176.381 27.7852C175.251 27.2929 174.19 26.6545 173.226 25.8863C172.537 25.2937 171.967 24.5747 171.547 23.768C171.113 22.8907 170.897 21.9209 170.92 20.942C170.876 20.0397 171.04 19.1394 171.397 18.3098C171.755 17.4803 172.298 16.7435 172.984 16.1556C174.359 14.9946 176.26 14.4141 178.688 14.4141C179.839 14.409 180.986 14.5512 182.101 14.8374C183.262 15.1476 184.398 15.5464 185.498 16.0304L183.929 19.8122C182.943 19.3906 181.928 19.0388 180.892 18.7594C180.12 18.5639 179.327 18.4636 178.53 18.4607C177.769 18.4097 177.016 18.6387 176.412 19.1046C176.171 19.3115 175.98 19.5698 175.853 19.8603C175.725 20.1509 175.664 20.4664 175.674 20.7835C175.665 21.1781 175.769 21.5671 175.973 21.9051C176.223 22.2753 176.546 22.5905 176.922 22.8315C177.918 23.4275 178.947 23.9641 180.006 24.4384C182.148 25.4639 183.618 26.4918 184.415 27.522C185.231 28.614 185.652 29.9504 185.61 31.3127Z" fill="white"/>
</svg>
