<svg width="186" height="50" viewBox="0 0 186 50" fill="none" xmlns="http://www.w3.org/2000/svg">
<path d="M43.2647 42.0684C47.1314 37.5462 49.0433 31.6731 48.5799 25.7413C48.1164 19.8094 45.3156 14.3046 40.7934 10.4377C36.2713 6.57106 30.3983 4.65916 24.4665 5.12262C18.5347 5.58609 13.03 8.38694 9.16328 12.9091C5.29654 17.4311 3.38455 23.304 3.84791 29.2358C4.31127 35.1676 7.11201 40.6724 11.634 44.5392C15.6977 48.0138 20.8687 49.9231 26.2154 49.9229C26.5523 49.9229 26.887 49.9157 27.2189 49.8985C26.4891 49.9667 25.75 49.9977 25.0025 49.9977C18.3723 49.9985 12.0134 47.3654 7.32458 42.6778C2.63574 37.9902 0.00102879 31.632 1.53548e-07 25.0019C-0.000363697 21.7189 0.645917 18.468 1.90194 15.4348C3.15796 12.4016 4.99913 9.64549 7.32032 7.32384C9.64151 5.00219 12.3972 3.16048 15.4302 1.90385C18.4632 0.647222 21.7139 0.000291203 24.9969 1.5355e-07C28.2799 -0.000363699 31.5308 0.645915 34.5641 1.90193C37.5973 3.15795 40.3535 4.9991 42.6752 7.32028C44.9969 9.64146 46.8386 12.3972 48.0953 15.4302C49.352 18.4631 49.999 21.7139 49.9994 24.9969C49.9998 31.3354 47.5926 37.4374 43.2647 42.0684Z" fill="#640C88"/>
<path d="M33.5019 25.7532C33.5533 25.7738 33.5944 25.814 33.6163 25.8649C33.6381 25.9158 33.6388 25.9733 33.6182 26.0247L31.967 30.165L31.9282 30.1506L27.507 41.2422C27.4864 41.2936 27.4462 41.3348 27.3954 41.3567C27.3445 41.3787 27.287 41.3795 27.2355 41.3591L23.2891 39.7877C23.2377 39.7672 23.1965 39.7272 23.1746 39.6764C23.1527 39.6256 23.1518 39.5682 23.1722 39.5167L27.5147 28.6169C27.5351 28.5653 27.5343 28.5078 27.5123 28.457C27.4904 28.4061 27.4493 28.3659 27.3978 28.3453L16.3694 23.949C16.3179 23.9286 16.2765 23.8885 16.2545 23.8376C16.2325 23.7867 16.2316 23.7291 16.2519 23.6775L17.8234 19.7312C17.8437 19.6797 17.8837 19.6384 17.9345 19.6164C17.9853 19.5943 18.0428 19.5934 18.0943 19.6137L33.5019 25.7532Z" fill="#E5D80E"/>
<path d="M83.4043 37.6815H77.8804L71.87 28.0146L69.8142 29.4901V37.6815H64.9497V14.7415H69.8142V25.2396L71.7287 22.5405L77.943 14.7415H83.3411L75.3381 24.8911L83.4043 37.6815Z" fill="#640C88"/>
<path d="M100.336 37.6815L98.6737 32.2202H90.3089L88.6466 37.6815H83.4053L91.5024 14.645H97.4497L105.578 37.6815H100.336ZM97.5101 28.1403C95.9719 23.1903 95.1062 20.3919 94.913 19.745C94.7198 19.0982 94.5811 18.5855 94.4968 18.2068C94.1518 19.5459 93.1633 22.8571 91.5313 28.1403H97.5101Z" fill="#640C88"/>
<path d="M113.251 37.6815H108.463V14.7415H121.613V18.7271H113.246V24.6434H121.03V28.6135H113.246L113.251 37.6815Z" fill="#640C88"/>
<path d="M140.149 37.6815L138.486 32.2202H130.119L128.457 37.6815H123.216L131.313 14.645H137.261L145.389 37.6815H140.149ZM137.323 28.1403C135.785 23.1903 134.919 20.3919 134.726 19.745C134.533 19.0982 134.394 18.5855 134.31 18.2068C133.965 19.5459 132.976 22.8571 131.344 28.1403H137.323Z" fill="#640C88"/>
<path d="M167.309 25.9904C167.309 29.7672 166.235 32.6598 164.085 34.6683C161.935 36.6767 158.831 37.6812 154.772 37.6815H148.275V14.7415H155.478C159.223 14.7415 162.132 15.73 164.203 17.707C166.274 19.6841 167.31 22.4452 167.309 25.9904ZM162.256 26.1162C162.256 21.1883 160.08 18.7246 155.728 18.7249H153.139V33.6642H155.226C159.915 33.6642 162.259 31.1482 162.259 26.1162H162.256Z" fill="#640C88"/>
<path d="M185.61 31.3104C185.65 32.245 185.468 33.1757 185.08 34.0266C184.691 34.8775 184.107 35.6245 183.374 36.2065C181.883 37.3989 179.809 37.9951 177.152 37.9951C174.909 38.0395 172.686 37.5671 170.655 36.6143V32.0944C171.925 32.6829 173.24 33.1709 174.586 33.554C175.545 33.8201 176.534 33.9624 177.528 33.9773C178.391 34.0324 179.248 33.8195 179.985 33.3678C180.269 33.1605 180.496 32.8851 180.645 32.567C180.794 32.2489 180.861 31.8983 180.84 31.5475C180.846 31.1173 180.714 30.6964 180.463 30.3468C180.157 29.9457 179.782 29.6028 179.355 29.3344C178.395 28.7594 177.402 28.2413 176.381 27.7829C175.251 27.2906 174.19 26.6522 173.226 25.884C172.537 25.2914 171.967 24.5723 171.547 23.7656C171.113 22.8884 170.897 21.9186 170.92 20.9397C170.876 20.0374 171.04 19.137 171.397 18.3075C171.755 17.478 172.298 16.7412 172.984 16.1533C174.359 14.9923 176.26 14.4118 178.688 14.4118C179.839 14.4067 180.986 14.5489 182.101 14.8351C183.262 15.1453 184.398 15.5441 185.498 16.0281L183.929 19.8099C182.943 19.3882 181.928 19.0364 180.892 18.7571C180.12 18.5615 179.327 18.4612 178.53 18.4584C177.769 18.4074 177.016 18.6364 176.412 19.1023C176.171 19.3092 175.98 19.5674 175.853 19.858C175.725 20.1486 175.664 20.464 175.674 20.7812C175.665 21.1758 175.769 21.5648 175.973 21.9027C176.223 22.2729 176.546 22.5882 176.922 22.8292C177.918 23.4252 178.947 23.9617 180.006 24.4361C182.148 25.4616 183.618 26.4895 184.415 27.5197C185.231 28.6117 185.652 29.948 185.61 31.3104Z" fill="#640C88"/>
</svg>
