<svg width="31" height="30" viewBox="0 0 31 30" fill="none" xmlns="http://www.w3.org/2000/svg">
<path fill-rule="evenodd" clip-rule="evenodd" d="M9.60672 0.0351562C9.90983 0.0351562 10.2005 0.155564 10.4148 0.369891C10.6292 0.584219 10.7496 0.874909 10.7496 1.17801V2.32087H14.1782V1.17801C14.1782 0.874909 14.2986 0.584219 14.5129 0.369891C14.7272 0.155564 15.0179 0.0351563 15.321 0.0351562C15.6241 0.0351562 15.9148 0.155564 16.1291 0.369891C16.3435 0.584219 16.4639 0.874909 16.4639 1.17801V2.32087H19.8924V1.17801C19.8924 0.874909 20.0128 0.584219 20.2272 0.369891C20.4415 0.155564 20.7322 0.0351563 21.0353 0.0351562C21.3384 0.0351562 21.6291 0.155564 21.8434 0.369891C22.0577 0.584219 22.1782 0.874909 22.1782 1.17801V2.32087H23.321C24.5334 2.32087 25.6962 2.8025 26.5535 3.65981C27.4108 4.51712 27.8924 5.67988 27.8924 6.8923V8.03516H29.0353C29.3384 8.03516 29.6291 8.15556 29.8434 8.36989C30.0577 8.58422 30.1782 8.87491 30.1782 9.17801C30.1782 9.48112 30.0577 9.77181 29.8434 9.98614C29.6291 10.2005 29.3384 10.3209 29.0353 10.3209H27.8924V13.7494H29.0353C29.3384 13.7494 29.6291 13.8699 29.8434 14.0842C30.0577 14.2985 30.1782 14.5892 30.1782 14.8923C30.1782 15.1954 30.0577 15.4861 29.8434 15.7004C29.6291 15.9147 29.3384 16.0352 29.0353 16.0352H27.8924V19.4637H29.0353C29.3384 19.4637 29.6291 19.5841 29.8434 19.7985C30.0577 20.0128 30.1782 20.3035 30.1782 20.6066C30.1782 20.9097 30.0577 21.2004 29.8434 21.4147C29.6291 21.629 29.3384 21.7494 29.0353 21.7494H27.8924V22.8923C27.8924 24.1047 27.4108 25.2675 26.5535 26.1248C25.6962 26.9821 24.5334 27.4637 23.321 27.4637H22.1782V28.6066C22.1782 28.9097 22.0577 29.2004 21.8434 29.4147C21.6291 29.629 21.3384 29.7494 21.0353 29.7494C20.7322 29.7494 20.4415 29.629 20.2272 29.4147C20.0128 29.2004 19.8924 28.9097 19.8924 28.6066V27.4637H16.4639V28.6066C16.4639 28.9097 16.3435 29.2004 16.1291 29.4147C15.9148 29.629 15.6241 29.7494 15.321 29.7494C15.0179 29.7494 14.7272 29.629 14.5129 29.4147C14.2986 29.2004 14.1782 28.9097 14.1782 28.6066V27.4637H10.7496V28.6066C10.7496 28.9097 10.6292 29.2004 10.4148 29.4147C10.2005 29.629 9.90983 29.7494 9.60672 29.7494C9.30362 29.7494 9.01293 29.629 8.7986 29.4147C8.58428 29.2004 8.46387 28.9097 8.46387 28.6066V27.4637H7.32101C6.10859 27.4637 4.94583 26.9821 4.08852 26.1248C3.23121 25.2675 2.74958 24.1047 2.74958 22.8923V21.7494H1.60672C1.30362 21.7494 1.01293 21.629 0.798602 21.4147C0.584275 21.2004 0.463867 20.9097 0.463867 20.6066C0.463867 20.3035 0.584275 20.0128 0.798602 19.7985C1.01293 19.5841 1.30362 19.4637 1.60672 19.4637H2.74958V16.0352H1.60672C1.30362 16.0352 1.01293 15.9147 0.798602 15.7004C0.584275 15.4861 0.463867 15.1954 0.463867 14.8923C0.463867 14.5892 0.584275 14.2985 0.798602 14.0842C1.01293 13.8699 1.30362 13.7494 1.60672 13.7494H2.74958V10.3209H1.60672C1.30362 10.3209 1.01293 10.2005 0.798602 9.98614C0.584275 9.77181 0.463867 9.48112 0.463867 9.17801C0.463867 8.87491 0.584275 8.58422 0.798602 8.36989C1.01293 8.15556 1.30362 8.03516 1.60672 8.03516H2.74958V6.8923C2.74958 5.67988 3.23121 4.51712 4.08852 3.65981C4.94583 2.8025 6.10859 2.32087 7.32101 2.32087H8.46387V1.17801C8.46387 0.874909 8.58428 0.584219 8.7986 0.369891C9.01293 0.155564 9.30362 0.0351563 9.60672 0.0351562ZM6.17815 6.8923C6.17815 6.5892 6.29856 6.2985 6.51289 6.08418C6.72722 5.86985 7.01791 5.74944 7.32101 5.74944H23.321C23.6241 5.74944 23.9148 5.86985 24.1291 6.08418C24.3435 6.2985 24.4639 6.5892 24.4639 6.8923V22.8923C24.4639 23.1954 24.3435 23.4861 24.1291 23.7004C23.9148 23.9148 23.6241 24.0352 23.321 24.0352H7.32101C7.01791 24.0352 6.72722 23.9148 6.51289 23.7004C6.29856 23.4861 6.17815 23.1954 6.17815 22.8923V6.8923Z" fill="black"/>
</svg>
