<svg width="31" height="33" viewBox="0 0 31 33" fill="none" xmlns="http://www.w3.org/2000/svg">
<g clip-path="url(#clip0_26_276)">
<path fill-rule="evenodd" clip-rule="evenodd" d="M9.86736 1.38159C8.36046 1.38159 7.14009 2.60341 7.14009 4.10886V8.45795C6.52046 8.53505 5.90227 8.61796 5.287 8.71105C3.17209 9.02814 1.68555 10.8681 1.68555 12.954V22.1089C1.68555 23.2662 2.14529 24.3761 2.96363 25.1944C3.78197 26.0128 4.89187 26.4725 6.04918 26.4725H6.44191L6.21646 28.9525C6.1821 29.3299 6.22677 29.7103 6.34762 30.0695C6.46847 30.4287 6.66285 30.7587 6.91836 31.0386C7.17387 31.3185 7.4849 31.542 7.83162 31.695C8.17834 31.848 8.55313 31.927 8.93209 31.927H22.8026C23.1816 31.927 23.5564 31.848 23.9031 31.695C24.2498 31.542 24.5609 31.3185 24.8164 31.0386C25.0719 30.7587 25.2663 30.4287 25.3871 30.0695C25.508 29.7103 25.5526 29.3299 25.5183 28.9525L25.2928 26.4725H25.6855C26.8429 26.4725 27.9528 26.0128 28.7711 25.1944C29.5894 24.3761 30.0492 23.2662 30.0492 22.1089V12.954C30.0492 10.8681 28.5626 9.02668 26.4477 8.71105C25.8312 8.61902 25.2134 8.53513 24.5946 8.45941V4.10886C24.5946 2.60196 23.3728 1.38159 21.8674 1.38159H9.86736ZM22.4128 8.22523V4.10886C22.4128 3.9642 22.3554 3.82546 22.2531 3.72317C22.1508 3.62088 22.012 3.56341 21.8674 3.56341H9.86736C9.7227 3.56341 9.58396 3.62088 9.48167 3.72317C9.37938 3.82546 9.32191 3.9642 9.32191 4.10886V8.22523C13.6764 7.82652 18.0583 7.82652 22.4128 8.22523ZM22.0972 20.247C22.3561 20.2732 22.5583 20.4798 22.5815 20.7372L23.3466 29.1503C23.3535 29.2259 23.3446 29.302 23.3203 29.3739C23.2961 29.4458 23.2572 29.5119 23.206 29.5679C23.1548 29.6238 23.0925 29.6685 23.023 29.6991C22.9536 29.7296 22.8785 29.7453 22.8026 29.7452H8.93209C8.85623 29.7453 8.78117 29.7296 8.71172 29.6991C8.64228 29.6685 8.57996 29.6238 8.52877 29.5679C8.47757 29.5119 8.43862 29.4458 8.41439 29.3739C8.39017 29.302 8.38121 29.2259 8.38809 29.1503L9.15318 20.7372C9.16464 20.6121 9.21921 20.4948 9.30755 20.4054C9.39589 20.316 9.51253 20.26 9.63755 20.247C13.7798 19.8198 17.955 19.8198 22.0972 20.247ZM23.5037 14.4725C23.5037 14.1832 23.6187 13.9057 23.8232 13.7011C24.0278 13.4965 24.3053 13.3816 24.5946 13.3816H24.6063C24.8956 13.3816 25.1731 13.4965 25.3777 13.7011C25.5822 13.9057 25.6972 14.1832 25.6972 14.4725V14.4841C25.6972 14.7735 25.5822 15.0509 25.3777 15.2555C25.1731 15.4601 24.8956 15.575 24.6063 15.575H24.5946C24.3053 15.575 24.0278 15.4601 23.8232 15.2555C23.6187 15.0509 23.5037 14.7735 23.5037 14.4841V14.4725ZM20.231 13.3816C19.9417 13.3816 19.6642 13.4965 19.4596 13.7011C19.255 13.9057 19.1401 14.1832 19.1401 14.4725V14.4841C19.1401 15.0863 19.6288 15.575 20.231 15.575H20.2426C20.532 15.575 20.8094 15.4601 21.014 15.2555C21.2186 15.0509 21.3335 14.7735 21.3335 14.4841V14.4725C21.3335 14.1832 21.2186 13.9057 21.014 13.7011C20.8094 13.4965 20.532 13.3816 20.2426 13.3816H20.231Z" fill="black"/>
</g>
<defs>
<clipPath id="clip0_26_276">
<rect width="30" height="32" fill="white" transform="translate(0.67334 0.654297)"/>
</clipPath>
</defs>
</svg>
