<svg width="33" height="33" viewBox="0 0 33 33" fill="none" xmlns="http://www.w3.org/2000/svg">
<path d="M15.5578 0.654297H4.89111C3.83025 0.654297 2.81283 1.07572 2.06269 1.82587C1.31254 2.57602 0.891113 3.59343 0.891113 4.6543L0.891113 32.6543H19.5578V4.6543C19.5578 3.59343 19.1364 2.57602 18.3862 1.82587C17.6361 1.07572 16.6186 0.654297 15.5578 0.654297ZM8.89111 25.9876H4.89111V23.321H8.89111V25.9876ZM8.89111 20.6543H4.89111V17.9876H8.89111V20.6543ZM8.89111 15.321H4.89111V12.6543H8.89111V15.321ZM8.89111 9.98763H4.89111V7.32096H8.89111V9.98763ZM15.5578 25.9876H11.5578V23.321H15.5578V25.9876ZM15.5578 20.6543H11.5578V17.9876H15.5578V20.6543ZM15.5578 15.321H11.5578V12.6543H15.5578V15.321ZM15.5578 9.98763H11.5578V7.32096H15.5578V9.98763ZM28.8911 7.32096H22.2244V32.6543H32.8911V11.321C32.8911 10.2601 32.4697 9.24268 31.7195 8.49254C30.9694 7.74239 29.952 7.32096 28.8911 7.32096ZM28.8911 25.9876H26.2244V23.321H28.8911V25.9876ZM28.8911 20.6543H26.2244V17.9876H28.8911V20.6543ZM28.8911 15.321H26.2244V12.6543H28.8911V15.321Z" fill="black"/>
</svg>
