<svg width="33" height="33" viewBox="0 0 33 33" fill="none" xmlns="http://www.w3.org/2000/svg">
<g clip-path="url(#clip0_26_271)">
<path fill-rule="evenodd" clip-rule="evenodd" d="M16.4887 1.0542C7.87267 1.0542 0.888672 8.0382 0.888672 16.6542C0.888672 25.2702 7.87267 32.2542 16.4887 32.2542C25.1047 32.2542 32.0887 25.2702 32.0887 16.6542C32.0887 8.0382 25.1047 1.0542 16.4887 1.0542ZM7.30787 7.1694C5.36066 9.0547 4.04099 11.4937 3.52815 14.1551C3.0153 16.8165 3.33413 19.5712 4.44133 22.0451C5.54854 24.519 7.39043 26.5921 9.71681 27.9827C12.0432 29.3734 14.7413 30.0142 17.4445 29.8182C20.1477 29.6221 22.7251 28.5987 24.8265 26.8869C26.9279 25.1751 28.4514 22.858 29.19 20.2502C29.9287 17.6425 29.8467 14.8705 28.9552 12.311C28.0637 9.75147 26.4059 7.5284 24.2071 5.9438C23.6659 6.80878 22.9471 7.54886 22.0983 8.115L20.0887 9.4542L20.3527 9.9822C20.4742 10.2253 20.5161 10.5004 20.4725 10.7686C20.4289 11.0368 20.3019 11.2845 20.1097 11.4766C19.9175 11.6687 19.6697 11.7954 19.4014 11.8387C19.1331 11.8821 18.858 11.8399 18.6151 11.7182L17.6487 11.235C17.311 11.0661 16.9288 11.0077 16.5561 11.068C16.1834 11.1283 15.8391 11.3043 15.5719 11.571L15.3607 11.7806C14.6583 12.4846 14.6583 13.6238 15.3607 14.3262L15.8343 14.7998C16.2439 15.211 16.8295 15.3982 17.4023 15.3022L19.2743 14.9902C19.7911 14.9038 20.3207 15.0478 20.7223 15.3822L22.8503 17.155C23.3623 17.5822 23.5863 18.2654 23.4231 18.915C22.8109 21.3615 21.5456 23.5957 19.7623 25.379L18.6055 26.5374C18.3383 26.8041 17.994 26.9801 17.6213 27.0404C17.2486 27.1007 16.8663 27.0423 16.5287 26.8734L16.2839 26.7518C15.9849 26.6024 15.7334 26.3726 15.5577 26.0883C15.3819 25.8041 15.2888 25.4764 15.2887 25.1422V23.3998C15.2887 22.923 15.0983 22.4638 14.7607 22.1262L12.6055 19.971C12.3387 19.7038 12.1628 19.3595 12.1025 18.9868C12.0422 18.6141 12.1006 18.2319 12.2695 17.8942L12.8887 16.6542L10.2647 14.0302C8.84947 12.6151 7.9119 10.7931 7.58307 8.819L7.30787 7.1694Z" fill="black"/>
</g>
<defs>
<clipPath id="clip0_26_271">
<rect width="32" height="32" fill="white" transform="translate(0.282227 0.654297)"/>
</clipPath>
</defs>
</svg>
