<svg width="33" height="33" viewBox="0 0 33 33" fill="none" xmlns="http://www.w3.org/2000/svg">
<path fill-rule="evenodd" clip-rule="evenodd" d="M16.2821 9.65441C16.2818 8.56108 16.5377 7.48288 17.0291 6.50622C17.5205 5.52956 18.2339 4.68159 19.112 4.03026C19.9902 3.37894 21.0087 2.94237 22.086 2.75554C23.1632 2.56872 24.2693 2.63683 25.3154 2.95441C25.4808 3.00451 25.6304 3.09659 25.7495 3.22168C25.8687 3.34677 25.9534 3.50061 25.9955 3.66819C26.0375 3.83578 26.0354 4.0114 25.9894 4.17793C25.9433 4.34445 25.8549 4.49621 25.7328 4.61841L21.3061 9.04375C21.3901 9.67708 21.6741 10.2891 22.1608 10.7757C22.6474 11.2624 23.2594 11.5464 23.8941 11.6291L28.3181 7.20375C28.4403 7.0816 28.5921 6.9932 28.7586 6.94716C28.9251 6.90112 29.1007 6.89902 29.2683 6.94105C29.4359 6.98308 29.5898 7.06781 29.7148 7.18699C29.8399 7.30617 29.932 7.45572 29.9821 7.62108C30.3144 8.71555 30.3734 9.87478 30.154 10.9973C29.9346 12.1199 29.4435 13.1716 28.7236 14.0604C28.0037 14.9493 27.077 15.6481 26.0244 16.0959C24.9719 16.5437 23.8257 16.7268 22.6861 16.6291C21.3288 16.5144 20.1928 16.7624 19.6074 17.4744L10.0741 29.0544C9.68377 29.5261 9.19922 29.9111 8.65151 30.1847C8.10379 30.4583 7.50497 30.6145 6.89339 30.6433C6.28182 30.6721 5.67096 30.5729 5.09994 30.352C4.52892 30.1312 4.01032 29.7935 3.57735 29.3606C3.14437 28.9277 2.80656 28.4092 2.58555 27.8382C2.36454 27.2672 2.2652 26.6564 2.29389 26.0448C2.32258 25.4332 2.47867 24.8344 2.75216 24.2866C3.02565 23.7388 3.41052 23.2542 3.88211 22.8637L15.4608 13.3291C16.1714 12.7424 16.4208 11.6077 16.3061 10.2504C16.2898 10.0522 16.2818 9.85333 16.2821 9.65441ZM5.77145 26.1544C5.77145 25.8892 5.8768 25.6348 6.06434 25.4473C6.25188 25.2598 6.50623 25.1544 6.77145 25.1544H6.78211C7.04733 25.1544 7.30168 25.2598 7.48922 25.4473C7.67676 25.6348 7.78211 25.8892 7.78211 26.1544V26.1651C7.78211 26.4303 7.67676 26.6847 7.48922 26.8722C7.30168 27.0597 7.04733 27.1651 6.78211 27.1651H6.77145C6.50623 27.1651 6.25188 27.0597 6.06434 26.8722C5.8768 26.6847 5.77145 26.4303 5.77145 26.1651V26.1544Z" fill="black"/>
<path d="M13.717 12.1743L10.7824 9.24096V7.15296C10.7823 6.98031 10.7376 6.81062 10.6526 6.66038C10.5675 6.51014 10.445 6.38448 10.297 6.29562L5.29702 3.29562C5.10578 3.18099 4.88172 3.13355 4.66043 3.16085C4.43914 3.18814 4.23333 3.28861 4.07568 3.44629L3.07568 4.44629C2.91801 4.60393 2.81754 4.80975 2.79024 5.03104C2.76294 5.25232 2.81038 5.47639 2.92502 5.66762L5.92502 10.6676C6.01387 10.8156 6.13953 10.9381 6.28977 11.0232C6.44001 11.1082 6.60971 11.1529 6.78235 11.153H8.86768L11.617 13.9023L13.717 12.173V12.1743Z" fill="black"/>
<path fill-rule="evenodd" clip-rule="evenodd" d="M17.0234 23.7596L22.6008 29.3356C23.0186 29.7535 23.5147 30.0849 24.0607 30.3111C24.6067 30.5372 25.1918 30.6536 25.7828 30.6536C26.3737 30.6536 26.9589 30.5372 27.5049 30.3111C28.0508 30.0849 28.5469 29.7535 28.9648 29.3356C29.3826 28.9177 29.7141 28.4217 29.9403 27.8757C30.1664 27.3297 30.2828 26.7446 30.2828 26.1536C30.2828 25.5627 30.1664 24.9775 29.9403 24.4315C29.7141 23.8856 29.3826 23.3895 28.9648 22.9716L24.5568 18.5649C23.8811 18.6607 23.1968 18.68 22.5168 18.6223C21.9914 18.5769 21.6074 18.6143 21.3608 18.6783C21.2827 18.6948 21.2076 18.7231 21.1381 18.7623L17.0234 23.7596ZM21.5754 21.9463C21.7629 21.759 22.0171 21.6538 22.2821 21.6538C22.5471 21.6538 22.8013 21.759 22.9888 21.9463L25.4888 24.4476C25.587 24.5392 25.6658 24.6496 25.7205 24.7722C25.7751 24.8949 25.8045 25.0273 25.8069 25.1616C25.8093 25.2958 25.7846 25.4292 25.7343 25.5537C25.684 25.6783 25.6091 25.7914 25.5142 25.8863C25.4192 25.9813 25.3061 26.0561 25.1816 26.1064C25.057 26.1567 24.9237 26.1814 24.7894 26.1791C24.6551 26.1767 24.5227 26.1473 24.4001 26.0927C24.2774 26.038 24.167 25.9592 24.0754 25.8609L21.5754 23.3609C21.3882 23.1734 21.283 22.9193 21.283 22.6543C21.283 22.3893 21.3882 22.1351 21.5754 21.9476V21.9463Z" fill="black"/>
</svg>
