<svg width="33" height="33" viewBox="0 0 33 33" fill="none" xmlns="http://www.w3.org/2000/svg">
<path d="M17.8333 3.32307C17.8333 1.85005 19.0267 0.656963 20.4987 0.656963L25.8333 0.654297C27.3067 0.654297 28.5013 1.84738 28.5013 3.32041V5.99318C28.5013 7.46488 27.3093 8.65796 25.8373 8.6593L22.5067 8.66196L19.456 11.1548C18.7547 11.6027 17.836 11.1001 17.836 10.2683L17.8333 3.32307ZM15.1667 3.32307C15.1667 1.85005 13.9733 0.656963 12.5013 0.656963L7.16667 0.654297C5.69333 0.654297 4.49867 1.84738 4.49867 3.32041V5.99318C4.49867 7.46488 5.69067 8.65796 7.16267 8.6593L10.4933 8.66196L13.544 11.1548C14.2453 11.6027 15.164 11.1001 15.164 10.2683L15.1667 3.32307ZM31.1667 15.3246C31.9027 15.3246 32.5 15.9218 32.5 16.6576V25.989C32.5 26.7249 31.9027 27.3221 31.1667 27.3221H27.4147L17.8307 18.7425L14.752 21.5979C14.476 21.8752 14.0947 22.0178 13.7013 21.9845C13.304 21.9525 12.9547 21.7512 12.716 21.418C12.3507 20.9114 12.4627 20.1182 12.9573 19.6223L17.4493 15.2206C18.3387 14.3848 19.312 13.9902 20.5 13.9902C21.3827 13.9902 22.7 14.3861 23.704 14.782C24.624 15.1459 25.6027 15.3232 26.592 15.3232H31.1667V15.3246ZM17.8427 22.3298L24.2133 28.0339L19.7053 31.5519C18.7893 32.2664 17.6613 32.6543 16.5 32.6543C15.3387 32.6543 14.2107 32.2664 13.2947 31.5519L9.32133 28.4512C8.384 27.7193 7.22933 27.3221 6.04 27.3221H1.83333C1.09733 27.3221 0.5 26.7249 0.5 25.989V16.6576C0.5 15.9218 1.09733 15.3246 1.83333 15.3246H6.528C7.552 15.3246 8.56133 15.1259 9.512 14.746C10.4627 14.3661 11.616 13.9915 12.4693 13.9915C13.1707 13.9915 13.836 14.1595 14.4453 14.4448L11.068 17.7414C9.64667 19.1651 9.42533 21.4193 10.5493 22.975C11.2427 23.9401 12.3107 24.5467 13.472 24.6413C13.5867 24.652 13.7027 24.6573 13.8173 24.6573C14.8733 24.6573 15.8827 24.2414 16.596 23.5242L17.8427 22.3311V22.3298Z" fill="black"/>
</svg>
