<svg width="33" height="26" viewBox="0 0 33 26" fill="none" xmlns="http://www.w3.org/2000/svg">
<g clip-path="url(#clip0_26_237)">
<path d="M3.35714 1.79712C1.77848 1.79712 0.5 3.07712 0.5 4.65426V15.5114H18.7857V4.65426C18.7857 3.0756 17.5057 1.79712 15.9286 1.79712H3.35714ZM18.7857 17.7971H0.5V21.7971C0.5 23.3743 1.78 24.6543 3.35714 24.6543H3.92857C3.92857 23.4418 4.4102 22.2791 5.26751 21.4218C6.12482 20.5645 7.28758 20.0828 8.5 20.0828C9.71242 20.0828 10.8752 20.5645 11.7325 21.4218C12.5898 22.2791 13.0714 23.4418 13.0714 24.6543H17.6429C17.946 24.6543 18.2367 24.5339 18.451 24.3195C18.6653 24.1052 18.7857 23.8145 18.7857 23.5114V17.7971Z" fill="black"/>
<path d="M10.7858 24.6544C10.7858 24.0482 10.545 23.4668 10.1163 23.0382C9.68766 22.6095 9.10628 22.3687 8.50007 22.3687C7.89386 22.3687 7.31248 22.6095 6.88383 23.0382C6.45517 23.4668 6.21436 24.0482 6.21436 24.6544C6.21436 25.2606 6.45517 25.842 6.88383 26.2707C7.31248 26.6993 7.89386 26.9401 8.50007 26.9401C9.10628 26.9401 9.68766 26.6993 10.1163 26.2707C10.545 25.842 10.7858 25.2606 10.7858 24.6544ZM22.2144 5.22586C21.9113 5.22586 21.6206 5.34626 21.4062 5.56059C21.1919 5.77492 21.0715 6.06561 21.0715 6.36871V23.5116C21.0715 23.6441 21.0944 23.7706 21.1355 23.8895C21.3254 22.7636 21.9298 21.7496 22.8297 21.0469C23.7296 20.3441 24.8599 20.0036 25.9982 20.0923C27.1365 20.1809 28.2004 20.6923 28.9807 21.5259C29.7609 22.3595 30.201 23.4548 30.2144 24.5965C31.5142 24.3299 32.5336 23.1718 32.4452 21.7272C32.1043 16.1476 30.1263 10.7922 26.7584 6.33062C26.496 5.98563 26.1571 5.70627 25.7684 5.51456C25.3797 5.32285 24.9518 5.22402 24.5184 5.22586H22.2144Z" fill="black"/>
<path d="M27.9284 24.6544C27.9284 24.0482 27.6875 23.4668 27.2589 23.0381C26.8302 22.6095 26.2489 22.3687 25.6426 22.3687C25.0364 22.3687 24.4551 22.6095 24.0264 23.0381C23.5978 23.4668 23.3569 24.0482 23.3569 24.6544C23.3569 25.2606 23.5978 25.842 24.0264 26.2706C24.4551 26.6993 25.0364 26.9401 25.6426 26.9401C26.2489 26.9401 26.8302 26.6993 27.2589 26.2706C27.6875 25.842 27.9284 25.2606 27.9284 24.6544Z" fill="black"/>
</g>
<defs>
<clipPath id="clip0_26_237">
<rect width="32" height="25.1429" fill="white" transform="translate(0.5 0.654297)"/>
</clipPath>
</defs>
</svg>
