<svg width="27" height="27" viewBox="0 0 27 27" fill="none" xmlns="http://www.w3.org/2000/svg">
<rect x="1" y="1.29541" width="25" height="25" rx="5.5" stroke="#383838"/>
<path fill-rule="evenodd" clip-rule="evenodd" d="M19.1689 8.12044C18.4293 7.38047 17.5506 6.79409 16.5835 6.39507C15.6163 5.99605 14.5798 5.79227 13.5336 5.79545C9.14285 5.79545 5.56857 9.35187 5.56679 13.724C5.56483 15.1162 5.9318 16.484 6.63036 17.6883L5.5 21.7954L9.72321 20.6929C10.8922 21.3263 12.2008 21.6577 13.5303 21.6572H13.5336C17.9239 21.6572 21.4978 18.1004 21.5 13.7286C21.5026 12.686 21.2979 11.6532 20.8977 10.6904C20.4975 9.72761 19.9099 8.85401 19.1689 8.12044ZM13.5336 20.319H13.5307C12.3455 20.3193 11.1818 20.0021 10.1607 19.4004L9.91892 19.2576L7.41285 19.9118L8.08178 17.4801L7.92428 17.2301C7.26156 16.1808 6.91044 14.965 6.91178 13.724C6.91178 10.0908 9.88357 7.13473 13.5361 7.13473C15.2882 7.1316 16.9698 7.82456 18.2111 9.0612C19.4523 10.2978 20.1516 11.9769 20.155 13.729C20.1535 17.3626 17.1832 20.319 13.5336 20.319ZM17.1653 15.3836C16.9664 15.2844 15.9868 14.8051 15.8053 14.739C15.6239 14.6729 15.49 14.6397 15.3575 14.8383C15.225 15.0369 14.8432 15.4811 14.7271 15.6151C14.6111 15.749 14.495 15.7636 14.2961 15.6644C14.0971 15.5651 13.4553 15.3561 12.695 14.6811C12.1032 14.1558 11.7039 13.5072 11.5878 13.309C11.4718 13.1108 11.5753 13.0033 11.675 12.9047C11.7646 12.8158 11.8739 12.6733 11.9736 12.5576C12.0732 12.4419 12.1064 12.359 12.1725 12.2269C12.2386 12.0947 12.2057 11.979 12.1561 11.8801C12.1064 11.7811 11.7082 10.8058 11.5425 10.409C11.3807 10.0226 11.2168 10.0751 11.0946 10.069C10.9786 10.0633 10.8446 10.0619 10.7128 10.0619C10.6121 10.0645 10.513 10.0879 10.4217 10.1305C10.3304 10.1731 10.2488 10.2342 10.1821 10.3097C9.99964 10.5083 9.48535 10.9883 9.48535 11.9626C9.48535 12.9369 10.1996 13.8797 10.2982 14.0119C10.3968 14.144 11.7018 16.1451 13.6986 17.0033C14.0693 17.1621 14.4482 17.3013 14.8336 17.4204C15.3103 17.5711 15.7443 17.5501 16.0871 17.499C16.4696 17.4422 17.2657 17.0197 17.4311 16.5569C17.5964 16.094 17.5968 15.6976 17.5471 15.6151C17.4975 15.5326 17.3646 15.4826 17.1653 15.3836Z" fill="#383838"/>
</svg>
